<?xml version="1.0" standalone="no"?><!DOCTYPE svg PUBLIC "-//W3C//DTD SVG 1.1//EN" "http://www.w3.org/Graphics/SVG/1.1/DTD/svg11.dtd"><svg t="1608736411710" class="icon" viewBox="0 0 1024 1024" version="1.1" xmlns="http://www.w3.org/2000/svg" p-id="760" xmlns:xlink="http://www.w3.org/1999/xlink" width="200" height="200"><defs><style type="text/css"></style></defs><path d="M952.32 377.17333333c-24.10666667-56.96-58.56-108.05333333-102.4-151.89333333-43.84-43.84-94.93333333-78.29333333-151.89333333-102.4C639.04 97.92 576.53333333 85.33333333 512 85.33333333s-127.04 12.58666667-186.02666667 37.54666667c-56.96 24.10666667-108.05333333 58.56-151.89333333 102.4-43.84 43.84-78.29333333 94.93333333-102.4 151.89333333C46.72 436.16 34.13333333 498.66666667 34.13333333 563.2c0 141.54666667 62.18666667 274.88 170.56 365.97333333l1.81333334 1.49333334c6.18666667 5.12 13.97333333 8 21.97333333 8h567.14666667c8 0 15.78666667-2.88 21.97333333-8l1.81333333-1.49333334C927.68 838.08 989.86666667 704.74666667 989.86666667 563.2c0-64.53333333-12.69333333-127.04-37.54666667-186.02666667zM778.02666667 857.6H245.97333333C162.66666667 782.4 115.2 675.84 115.2 563.2c0-106.02666667 41.28-205.65333333 116.26666667-280.53333333 74.98666667-74.98666667 174.61333333-116.26666667 280.53333333-116.26666667 106.02666667 0 205.65333333 41.28 280.53333333 116.26666667 74.98666667 74.98666667 116.26666667 174.61333333 116.26666667 280.53333333 0 112.64-47.46666667 219.2-130.77333333 294.4z" p-id="761"></path><path d="M630.93333333 415.46666667c-3.30666667-3.30666667-8.74666667-3.30666667-12.05333333 0L528.74666667 505.6c-19.94666667-5.33333333-42.02666667-0.21333333-57.70666667 15.46666667-23.36 23.36-23.36 61.12 0 84.48 23.36 23.36 61.12 23.36 84.48 0 15.68-15.68 20.8-37.76 15.46666667-57.70666667l90.13333333-90.13333333c3.30666667-3.30666667 3.30666667-8.74666667 0-12.05333334l-30.18666667-30.18666666zM488.53333333 307.2h46.93333334c4.69333333 0 8.53333333-3.84 8.53333333-8.53333333v-85.33333334c0-4.69333333-3.84-8.53333333-8.53333333-8.53333333h-46.93333334c-4.69333333 0-8.53333333 3.84-8.53333333 8.53333333v85.33333334c0 4.69333333 3.84 8.53333333 8.53333333 8.53333333z m277.33333334 232.53333333v46.93333334c0 4.69333333 3.84 8.53333333 8.53333333 8.53333333h85.33333333c4.69333333 0 8.53333333-3.84 8.53333334-8.53333333v-46.93333334c0-4.69333333-3.84-8.53333333-8.53333334-8.53333333h-85.33333333c-4.69333333 0-8.53333333 3.84-8.53333333 8.53333333z m13.54666666-210.34666666l-33.17333333-33.17333334c-3.30666667-3.30666667-8.74666667-3.30666667-12.05333333 0l-60.37333334 60.37333334c-3.30666667 3.30666667-3.30666667 8.74666667 0 12.05333333l33.17333334 33.17333333c3.30666667 3.30666667 8.74666667 3.30666667 12.05333333 0l60.37333333-60.37333333c3.30666667-3.30666667 3.30666667-8.74666667 0-12.05333333z m-489.17333333-33.17333334c-3.30666667-3.30666667-8.74666667-3.30666667-12.05333333 0l-33.17333334 33.17333334c-3.30666667 3.30666667-3.30666667 8.74666667 0 12.05333333l60.37333334 60.37333333c3.30666667 3.30666667 8.74666667 3.30666667 12.05333333 0l33.17333333-33.17333333c3.30666667-3.30666667 3.30666667-8.74666667 0-12.05333333l-60.37333333-60.37333334zM245.33333333 531.2h-85.33333333c-4.69333333 0-8.53333333 3.84-8.53333333 8.53333333v46.93333334c0 4.69333333 3.84 8.53333333 8.53333333 8.53333333h85.33333333c4.69333333 0 8.53333333-3.84 8.53333334-8.53333333v-46.93333334c0-4.69333333-3.84-8.53333333-8.53333334-8.53333333z" p-id="762"></path></svg>