<?xml version="1.0" standalone="no"?><!DOCTYPE svg PUBLIC "-//W3C//DTD SVG 1.1//EN" "http://www.w3.org/Graphics/SVG/1.1/DTD/svg11.dtd"><svg t="1608815046310" class="icon" viewBox="0 0 1024 1024" version="1.1" xmlns="http://www.w3.org/2000/svg" p-id="959" xmlns:xlink="http://www.w3.org/1999/xlink" width="200" height="200"><defs><style type="text/css"></style></defs><path d="M746.00727312 628.974545c-12.01454531 30.02181844-33.01818188 57.01818188-54.02181843 80.98909125a240 240 0 0 1-80.98909125 54.05090906c-29.99272688 11.98545469-62.98181812 20.974545-98.99636344 20.97454594s-68.974545-5.99272688-98.99636344-20.97454594a381.17818219 381.17818219 0 0 1-80.98909125-54.05090906 239.73818156 239.73818156 0 0 1-53.99272687-80.98909125c-12.04363594-29.96363625-21.03272719-63.01090875-21.03272719-98.99636344 0-20.94545438 3.025455-41.97818156 6.0218175-59.98545469 5.96363625-20.94545438 11.98545469-38.98181813 20.97454594-57.01818187 9.01818187-17.94909094 21.00363656-32.95999969 33.01818187-50.99636344A201.89090906 201.89090906 0 0 1 362.00727312 320c9.01818187-6.02181844 18.00727312-8.98909125 26.99636344-6.02181844 9.01818187 3.05454563 18.00727312 6.02181844 24 15.01090969 6.02181844 8.98909125 9.01818187 18.03636375 6.02181844 26.99636344-3.025455 9.01818187-6.02181844 17.97818156-15.04000031 24-24 18.00727312-44.974545 39.01090875-56.98909125 65.97818156-11.98545469 27.05454562-21.03272719 54.02181844-21.03272719 84.01454531 0 24 6.02181844 48 15.01090875 72 9.01818187 24 24 42.03636375 39.01090969 57.01818188a175.85454562 175.85454562 0 0 0 57.01818187 38.98181812c22.69090875 9.89090906 47.21454562 14.98181813 71.97090844 15.01090969 24 0 48-5.99272688 72.02909156-15.01090969 24-8.98909125 42.00727312-24 56.98909031-38.98181812a175.85454562 175.85454562 0 0 0 38.98181813-57.01818188c9.89090906-22.72000031 14.98181813-47.21454562 15.04000031-72 0-29.96363625-5.99272688-56.98909125-17.97818156-80.98909031-12.01454531-24-30.02181844-48-54.05090906-63.01090969-8.95999969-5.96363625-11.98545469-14.9527275-14.98181813-24-3.025455-8.98909125 0-17.97818156 6.02181844-26.96727281 5.96363625-9.01818187 14.98181813-11.98545469 24-15.01090875 8.98909125-2.99636344 17.94909094 0 26.96727187 5.96363625A279.27272719 279.27272719 0 0 1 704 368c11.98545469 15.01090875 24 32.98909125 32.98909125 48 9.01818187 17.97818156 15.01090875 36.01454531 21.03272719 53.99272688 5.99272688 18.00727312 5.99272688 38.98181813 5.99272687 59.98545468 2.99636344 36.01454531-3.025455 69.03272719-18.00727218 99.05454563v-0.05818219zM475.98545469 281.01818188c0-8.98909125 3.025455-17.97818156 12.01454531-27.025455 7.01090906-7.47636375 16.75636406-11.78181844 26.99636344-11.98545375 9.01818187 0 17.97818156 3.05454563 24 11.98545375 7.50545437 7.03999969 11.83999969 16.78545469 12.01454531 27.05454562v216c0 8.95999969-3.025455 18.00727312-12.01454531 24.02909156-6.02181844 5.96363625-14.98181813 11.9272725-24 11.9272725-9.01818187 0-18.00727312-2.99636344-26.99636344-11.98545468-5.99272688-5.99272688-12.01454531-15.01090875-12.01454531-24V280.98909125zM512 32C248 32 32 248 32 512S248 992 512 992 992 776 992 512 776 32 512 32z" p-id="960"></path></svg>