<?xml version="1.0" standalone="no"?><!DOCTYPE svg PUBLIC "-//W3C//DTD SVG 1.1//EN" "http://www.w3.org/Graphics/SVG/1.1/DTD/svg11.dtd"><svg t="1608736466130" class="icon" viewBox="0 0 1024 1024" version="1.1" xmlns="http://www.w3.org/2000/svg" p-id="791" xmlns:xlink="http://www.w3.org/1999/xlink" width="200" height="200"><defs><style type="text/css"></style></defs><path d="M782.27531852 936.77037037H241.72468148c-60.19602963 0-109.22666667-49.03063703-109.22666666-109.22666667V196.4562963c0-60.19602963 49.03063703-109.22666667 109.22666666-109.22666667h540.55063704c60.19602963 0 109.22666667 49.03063703 109.22666666 109.22666667v631.0874074c0 60.19602963-49.03063703 109.22666667-109.22666666 109.22666667zM241.72468148 160.04740741c-20.02488889 0-36.40888889 16.384-36.40888889 36.40888889v631.0874074c0 20.02488889 16.384 36.40888889 36.40888889 36.40888889h540.55063704c20.02488889 0 36.40888889-16.384 36.40888889-36.40888889V196.4562963c0-20.02488889-16.384-36.40888889-36.40888889-36.40888889H241.72468148z" p-id="792"></path><path d="M747.44414815 343.30548148H271.70133333c-20.14625185 0-36.40888889-16.26263703-36.40888888-36.40888889s16.26263703-36.40888889 36.40888888-36.40888889h475.74281482c20.14625185 0 36.40888889 16.26263703 36.40888888 36.40888889s-16.26263703 36.40888889-36.40888888 36.40888889zM747.44414815 497.43644445H271.70133333c-20.14625185 0-36.40888889-16.26263703-36.40888888-36.4088889s16.26263703-36.40888889 36.40888888-36.40888888h475.74281482c20.14625185 0 36.40888889 16.26263703 36.40888888 36.40888888s-16.26263703 36.40888889-36.40888888 36.4088889zM554.47703703 653.99466667H271.70133333c-20.14625185 0-36.40888889-16.26263703-36.40888888-36.40888889s16.26263703-36.40888889 36.40888888-36.40888889h282.7757037c20.14625185 0 36.40888889 16.26263703 36.40888889 36.40888889s-16.26263703 36.40888889-36.40888889 36.40888889z" p-id="793"></path></svg>