<?xml version="1.0" standalone="no"?><!DOCTYPE svg PUBLIC "-//W3C//DTD SVG 1.1//EN" "http://www.w3.org/Graphics/SVG/1.1/DTD/svg11.dtd"><svg t="1608814939315" class="icon" viewBox="0 0 1024 1024" version="1.1" xmlns="http://www.w3.org/2000/svg" p-id="933" xmlns:xlink="http://www.w3.org/1999/xlink" width="200" height="200"><defs><style type="text/css"></style></defs><path d="M512 62a450 450 0 1 1 0 900A450 450 0 0 1 512 62zM176.91875 421.8875c-4.1625 4.1625-4.1625 4.1625 0 8.2125-11.08125 17.94375-34.875 20.1375-51.91875 9.3375a393.8625 393.8625 0 0 0 327.0375 461.75625l-0.3375-0.28125-6.75-3.375c12.65625-4.05 29.41875-4.05 41.90625-4.05-4.1625-24.6375-4.1625-45.05625-4.1625-69.75 0 0-96.3-69.6375-96.3-110.7s12.54375-61.48125 0-61.48125c-20.98125 0-46.125 16.425-50.2875 0-8.38125-24.6375-25.14375-45.1125-50.2875-53.26875-57.65625 0-65.925-62.1-66.9375-126.1125l-0.05625-17.4375c0-20.5875-25.14375-20.5875-41.90625-32.85z m358.875-302.90625l4.8375 1.29375c63.7875 19.4625 65.64375 83.8125 13.275 75.9375 0 20.41875 0 45-4.1625 69.6375-4.21875 41.0625-54.50625 28.8-67.05 49.275-12.4875 20.53125 25.14375 41.00625 67.05 32.79375 12.54375 0 0-12.375 8.4375-16.425 16.70625-4.05 37.63125-4.05 54.39375 0a878.79375 878.79375 0 0 1-58.66875 106.70625c-8.4375 12.2625 0 36.9 0 53.26875 0 123.13125-58.66875-28.6875-67.05-24.58125-8.38125 8.2125-46.0125-8.2125-62.775-8.2125-16.7625 0-8.4375 32.79375-25.14375 32.79375-33.525 0-25.14375-8.2125-25.14375 4.05 0 16.425 4.10625 49.275 4.10625 98.49375 0 16.425 33.525-4.05 54.45-4.05 25.14375 0 41.90625 20.475 58.66875 28.6875 29.25 12.375 58.6125 53.38125 79.5375 57.375 20.925 4.21875 4.1625 36.95625 29.25 32.85 12.54375-4.05 29.30625 4.1625 37.6875 16.425 12.6 16.425 4.21875 37.0125-12.54375 49.275-25.0875 24.58125-33.46875 53.26875-46.0125 110.7 6.8625-2.25 14.9625 3.4875 21.65625 10.40625a394.3125 394.3125 0 0 0 279.61875-243.9c-31.8375 33.80625-68.625 36.39375-57.7125 7.7625-12.6-24.58125-29.3625-45.16875-50.2875-65.64375-37.74375-32.79375-71.26875-94.3875 46.06875-180.5625-18.16875-46.2375 26.83125-89.4375 55.40625-57.0375a393.75 393.75 0 0 0-337.8375-237.375z" p-id="934"></path></svg>