<?xml version="1.0" standalone="no"?><!DOCTYPE svg PUBLIC "-//W3C//DTD SVG 1.1//EN" "http://www.w3.org/Graphics/SVG/1.1/DTD/svg11.dtd"><svg t="1608814595533" class="icon" viewBox="0 0 1024 1024" version="1.1" xmlns="http://www.w3.org/2000/svg" p-id="809" xmlns:xlink="http://www.w3.org/1999/xlink" width="200" height="200"><defs><style type="text/css"></style></defs><path d="M512 962C263.4875 962 62 760.5125 62 512S263.4875 62 512 62s450 201.4875 450 450-201.4875 450-450 450z m0-825.00000029C304.8875 136.99999971 136.99999971 304.8875 136.99999971 512s167.88750029 375.00000029 375.00000029 375.00000029 375.00000029-167.88750029 375.00000029-375.00000029S719.1125 136.99999971 512 136.99999971z m0 675a299.40000029 299.40000029 0 0 1-234-112.5A299.40000029 299.40000029 0 0 1 512 586.99999971a299.25 299.25 0 0 1 233.96249971 112.5A299.25 299.25 0 0 1 512 811.99999971z m0-262.49999942a150.00000029 150.00000029 0 1 1 0-300.00000058 150.00000029 150.00000029 0 0 1 0 300.00000058z" p-id="810"></path></svg>