<?xml version="1.0" standalone="no"?><!DOCTYPE svg PUBLIC "-//W3C//DTD SVG 1.1//EN" "http://www.w3.org/Graphics/SVG/1.1/DTD/svg11.dtd"><svg t="1608814734798" class="icon" viewBox="0 0 1024 1024" version="1.1" xmlns="http://www.w3.org/2000/svg" p-id="7100" xmlns:xlink="http://www.w3.org/1999/xlink" width="200" height="200"><defs><style type="text/css"></style></defs><path d="M861.364706 289.129412l18.070588-18.070588c6.023529-12.047059 6.023529-24.094118 6.02353-36.141177-6.023529-12.047059-12.047059-24.094118-24.094118-30.117647L566.211765 36.141176c-36.141176-24.094118-84.329412-24.094118-120.470589 0L156.611765 204.8c-12.047059 0-18.070588 6.023529-18.070589 18.070588-6.023529 12.047059-12.047059 24.094118-6.023529 36.141177 6.023529 12.047059 12.047059 24.094118 24.094118 30.117647L451.764706 457.788235c18.070588 12.047059 42.164706 18.070588 60.235294 18.070589s42.164706-6.023529 60.235294-18.070589l289.129412-168.658823zM475.858824 403.576471L204.8 246.964706l277.082353-156.611765c18.070588-12.047059 42.164706-12.047059 60.235294 0L813.176471 246.964706 536.094118 403.576471c-18.070588 12.047059-42.164706 12.047059-60.235294 0zM421.647059 505.976471l-240.941177-138.541177c-12.047059 0-18.070588-6.023529-30.117647-6.023529-36.141176 0-60.235294 30.117647-60.235294 60.235294v307.2c0 42.164706 24.094118 84.329412 60.235294 102.4l240.941177 138.541176c12.047059 6.023529 18.070588 6.023529 30.117647 6.02353 36.141176 0 60.235294-24.094118 60.235294-60.235294v-307.2c0-42.164706-24.094118-78.305882-60.235294-102.4z m0 415.623529l-240.941177-138.541176c-18.070588-12.047059-30.117647-30.117647-30.117647-54.211765V421.647059l12.047059-24.094118L150.588235 421.647059l240.941177 138.541176c18.070588 12.047059 30.117647 30.117647 30.117647 54.211765v307.2zM873.411765 361.411765c-12.047059 0-18.070588 0-30.117647 6.023529l-240.941177 138.541177c-36.141176 24.094118-60.235294 60.235294-60.235294 102.4v307.2c0 36.141176 24.094118 60.235294 60.235294 60.235294 12.047059 0 18.070588 0 30.117647-6.02353l240.941177-138.541176c36.141176-24.094118 60.235294-60.235294 60.235294-102.4V421.647059c0-30.117647-24.094118-60.235294-60.235294-60.235294z m0 367.435294c0 24.094118-12.047059 42.164706-30.117647 54.211765l-240.941177 138.541176v-307.2c0-24.094118 12.047059-42.164706 30.117647-54.211765L873.411765 421.647059v307.2z" p-id="7101"></path></svg>