<?xml version="1.0" standalone="no"?><!DOCTYPE svg PUBLIC "-//W3C//DTD SVG 1.1//EN" "http://www.w3.org/Graphics/SVG/1.1/DTD/svg11.dtd"><svg t="1608814951051" class="icon" viewBox="0 0 1024 1024" version="1.1" xmlns="http://www.w3.org/2000/svg" p-id="1062" xmlns:xlink="http://www.w3.org/1999/xlink" width="200" height="200"><defs><style type="text/css"></style></defs><path d="M761.42857167 886.59285752l-3.40714335 2.25a450.38571416 450.38571416 0 0 1-158.9785708 64.73571416l-7.9714292 1.4785708-4.75714248 0.83571504-2.12142832 0.32142832-5.91428585 0.96428584-6.75 0.9-1.92857167 0.25714248 1.54285752-0.19285664c-14.33571416 1.92857168-28.92857168 3.08571416-43.71428585 3.6L512 962c-23.20714248 0-46.02857168-1.73571416-68.33571416-5.14285752l-3.85714336-0.64285664-2.57142832-0.38571417a448.13571416 448.13571416 0 0 1-10.28571416-1.86428583l-1.92857168-0.38571417-0.9-0.12857167a448.32857167 448.32857167 0 0 1-2.8285708-0.64285752l-6.42857168-1.35-4.56428584-1.02857081a443.05714248 443.05714248 0 0 1-23.14285752-5.97857167l-6.23571416-1.86428584a354.34285752 354.34285752 0 0 1-9.25714248-2.89285664l-5.97857168-2.05714336a429.62142833 429.62142833 0 0 1-22.75714248-8.48571416l-4.88571416-1.99285752a446.46428584 446.46428584 0 0 1-60.36428585-30.85714248l-4.11428583-2.57142833-7.58571417-4.88571415-3.40714335-2.25-2.18571416-1.41428585a452.31428584 452.31428584 0 0 1-136.28571416-144.89999999l-0.64285752-1.15714336a449.16428584 449.16428584 0 0 1-19.73571416-37.60714248l-0.45-1.02857168a447.49285752 447.49285752 0 0 1-22.11428584-58.24285664l0.45 1.67142832a450 450 0 1 1 860.78571504 0l0.45-1.67142832a446.52857168 446.52857168 0 0 1-22.11428584 58.24285664l-0.45 1.02857168a448.26428584 448.26428584 0 0 1-19.73571416 37.60714248l-0.64285752 1.15714336a451.28571416 451.28571416 0 0 1-136.28571416 144.9l-2.12142832 1.41428584zM631.57142832 591.39285752H392.42857168a211.75714248 211.75714248 0 0 0-203.14285752 151.84285664 396.83571416 396.83571416 0 0 0 645.3 0A211.75714248 211.75714248 0 0 0 631.57142832 591.39285752zM512 220.85a158.78571416 158.78571416 0 1 0 0 317.57142832 158.78571416 158.78571416 0 0 0 0-317.57142832z" p-id="1063"></path></svg>