<?xml version="1.0" standalone="no"?><!DOCTYPE svg PUBLIC "-//W3C//DTD SVG 1.1//EN" "http://www.w3.org/Graphics/SVG/1.1/DTD/svg11.dtd"><svg t="1608736603470" class="icon" viewBox="0 0 1024 1024" version="1.1" xmlns="http://www.w3.org/2000/svg" p-id="823" xmlns:xlink="http://www.w3.org/1999/xlink" width="200" height="200"><defs><style type="text/css"></style></defs><path d="M512 98.41777778c55.86488889 0 110.02311111 10.92266667 160.99555555 32.42666667 49.26577778 20.82133333 93.52533333 50.63111111 131.52711112 88.63288888 38.00177778 38.00177778 67.81155555 82.26133333 88.63288888 131.52711112 21.504 50.97244445 32.42666667 105.13066667 32.42666667 160.99555555s-10.92266667 110.02311111-32.42666667 160.99555555c-20.82133333 49.26577778-50.63111111 93.52533333-88.63288888 131.52711112-38.00177778 38.00177778-82.26133333 67.81155555-131.52711112 88.63288888-50.97244445 21.504-105.13066667 32.42666667-160.99555555 32.42666667s-110.02311111-10.92266667-160.99555555-32.42666667c-49.26577778-20.82133333-93.52533333-50.63111111-131.52711112-88.63288888-38.00177778-38.00177778-67.81155555-82.26133333-88.63288888-131.52711112-21.504-50.97244445-32.42666667-105.13066667-32.42666667-160.99555555s10.92266667-110.02311111 32.42666667-160.99555555c20.82133333-49.26577778 50.63111111-93.52533333 88.63288888-131.52711112s82.26133333-67.81155555 131.52711112-88.63288888c50.97244445-21.504 105.13066667-32.42666667 160.99555555-32.42666667m0-56.88888889C252.13155555 41.52888889 41.52888889 252.13155555 41.52888889 512S252.13155555 982.47111111 512 982.47111111 982.47111111 771.86844445 982.47111111 512 771.86844445 41.52888889 512 41.52888889z" p-id="824"></path><path d="M512 385.70666667m-120.60444445 0a120.60444445 120.60444445 0 1 0 241.2088889 0 120.60444445 120.60444445 0 1 0-241.2088889 0Z" p-id="825"></path><path d="M514.84444445 544.768c-119.58044445 0-221.86666667 78.27911111-263.50933334 189.09866667 32.08533333 31.744 68.72177778 57.00266667 109.11288889 74.97955555 45.73866667 20.48 94.43555555 30.83377778 144.61155555 30.83377778s98.87288889-10.35377778 144.61155556-30.83377778c44.25955555-19.79733333 83.968-48.128 118.10133334-84.30933333 1.59288889-1.70666667 3.072-3.41333333 4.66488888-5.00622222-44.60088889-103.08266667-143.13244445-174.76266667-257.59288888-174.76266667z" p-id="826"></path></svg>